<?xml version="1.0" encoding="utf-8"?>
<svg xmlns="http://www.w3.org/2000/svg" viewBox="0 0 500 500">
  <defs>
    <linearGradient id="paint0_linear_16_339" x1="-12.4348" y1="91.2145" x2="228.124" y2="92.098" gradientUnits="userSpaceOnUse" gradientTransform="matrix(2.414679, 0, 0, 2.414679, 3.805614, 3.468572)">
      <stop style="stop-color: rgb(250, 174, 0);"/>
      <stop offset="1" style="stop-color: rgb(189, 90, 47);"/>
    </linearGradient>
  </defs>
  <path d="M 456.894 172.259 C 470.061 167.326 484.872 173.979 488.423 187.582 C 501.804 238.865 498.337 293.353 478.135 342.842 C 454.715 400.224 410.523 446.666 354.374 472.903 C 298.223 499.141 234.246 503.246 175.205 484.398 C 116.163 465.551 66.398 425.139 35.835 371.221 C 5.272 317.305 -3.839 253.846 10.318 193.508 C 24.473 133.168 60.858 80.385 112.211 45.687 C 163.563 10.988 226.111 -3.073 287.373 6.305 C 340.212 14.392 388.742 39.406 425.869 77.23 C 435.717 87.262 433.819 103.39 422.823 112.15 C 411.827 120.91 395.913 118.955 385.796 109.191 C 356.862 81.26 319.832 62.783 279.668 56.634 C 231.07 49.195 181.455 60.351 140.719 87.876 C 99.98 115.401 71.118 157.274 59.887 205.137 C 48.659 253.002 55.887 303.342 80.129 346.113 C 104.375 388.885 143.852 420.943 190.687 435.894 C 237.525 450.845 288.277 447.588 332.817 426.774 C 377.359 405.961 412.416 369.121 430.997 323.602 C 446.352 285.983 449.517 244.724 440.416 205.548 C 437.234 191.852 443.728 177.194 456.894 172.259 Z" fill="url(#paint0_linear_16_339)" style=""/>
  <path d="M 165.391 242.152 C 165.391 252.696 172.747 261.115 183.455 261.115 C 184.845 261.115 185.825 260.951 186.398 260.625 L 174.055 278.116 L 191.383 278.116 L 203.971 258.09 C 207.159 252.941 209.203 247.056 209.203 241.743 C 209.203 229.809 199.966 220.9 187.296 220.9 C 174.872 220.9 165.391 229.891 165.391 242.152 Z M 179.777 241.58 C 179.777 237.411 183.128 234.223 187.378 234.223 C 191.629 234.223 194.898 237.493 194.898 241.661 C 194.898 245.83 191.629 249.017 187.378 249.017 C 183.128 249.017 179.777 245.748 179.777 241.58 Z M 264.35 250.081 C 264.35 234.632 255.523 220.9 239.502 220.9 C 223.4 220.9 214.572 234.632 214.572 250.081 C 214.572 265.529 223.4 279.261 239.502 279.261 C 255.523 279.261 264.35 265.529 264.35 250.081 Z M 249.147 250.081 C 249.147 257.682 246.205 265.12 239.502 265.12 C 232.718 265.12 229.775 257.682 229.775 250.081 C 229.775 242.479 232.718 235.041 239.502 235.041 C 246.205 235.041 249.147 242.479 249.147 250.081 Z M 298.081 235.041 C 298.081 227.276 291.787 221.227 283.695 221.227 C 275.603 221.227 269.309 227.276 269.309 235.041 C 269.309 242.805 275.603 248.855 283.695 248.855 C 291.787 248.855 298.081 242.805 298.081 235.041 Z M 288.436 235.041 C 288.436 237.901 286.393 239.864 283.695 239.864 C 280.997 239.864 278.954 237.901 278.954 235.041 C 278.954 232.18 280.997 230.219 283.695 230.219 C 286.393 230.219 288.436 232.18 288.436 235.041 Z M 328.732 221.962 L 316.227 221.962 L 274.541 278.116 L 287.047 278.116 L 328.732 221.962 Z M 305.192 265.038 C 305.192 272.803 311.485 278.852 319.578 278.852 C 327.67 278.852 333.964 272.803 333.964 265.038 C 333.964 257.273 327.67 251.224 319.578 251.224 C 311.485 251.224 305.192 257.273 305.192 265.038 Z M 314.838 265.038 C 314.838 262.177 316.881 260.216 319.578 260.216 C 322.275 260.216 324.319 262.177 324.319 265.038 C 324.319 267.899 322.275 269.861 319.578 269.861 C 316.881 269.861 314.838 267.899 314.838 265.038 Z" fill="white" style=""/>
</svg>