<?xml version="1.0" encoding="utf-8"?>
<svg xmlns="http://www.w3.org/2000/svg" viewBox="0 0 500 500">
  <defs>
    <linearGradient id="paint0_linear_16_339" x1="-12.4348" y1="91.2145" x2="228.124" y2="92.098" gradientUnits="userSpaceOnUse" gradientTransform="matrix(2.414679, 0, 0, 2.414679, 3.805614, 3.468572)">
      <stop style="stop-color: rgb(250, 174, 0);"/>
      <stop offset="1" style="stop-color: rgb(189, 90, 47);"/>
    </linearGradient>
  </defs>
  <path d="M 456.894 172.259 C 470.061 167.326 484.872 173.979 488.423 187.582 C 501.804 238.865 498.337 293.353 478.135 342.842 C 454.715 400.224 410.523 446.666 354.374 472.903 C 298.223 499.141 234.246 503.246 175.205 484.398 C 116.163 465.551 66.398 425.139 35.835 371.221 C 5.272 317.305 -3.839 253.846 10.318 193.508 C 24.473 133.168 60.858 80.385 112.211 45.687 C 163.563 10.988 226.111 -3.073 287.373 6.305 C 340.212 14.392 388.742 39.406 425.869 77.23 C 435.717 87.262 433.819 103.39 422.823 112.15 C 411.827 120.91 395.913 118.955 385.796 109.191 C 356.862 81.26 319.832 62.783 279.668 56.634 C 231.07 49.195 181.455 60.351 140.719 87.876 C 99.98 115.401 71.118 157.274 59.887 205.137 C 48.659 253.002 55.887 303.342 80.129 346.113 C 104.375 388.885 143.852 420.943 190.687 435.894 C 237.525 450.845 288.277 447.588 332.817 426.774 C 377.359 405.961 412.416 369.121 430.997 323.602 C 446.352 285.983 449.517 244.724 440.416 205.548 C 437.234 191.852 443.728 177.194 456.894 172.259 Z" fill="url(#paint0_linear_16_339)" style=""/>
  <path d="M 163.368 242.908 C 163.368 254.122 171.191 263.075 182.579 263.075 C 184.057 263.075 185.1 262.901 185.71 262.554 L 172.582 281.156 L 191.011 281.156 L 204.398 259.86 C 207.788 254.382 209.961 248.123 209.961 242.474 C 209.961 229.781 200.139 220.307 186.664 220.307 C 173.452 220.307 163.368 229.868 163.368 242.908 Z M 178.668 242.298 C 178.668 237.866 182.232 234.476 186.751 234.476 C 191.272 234.476 194.749 237.953 194.749 242.385 C 194.749 246.819 191.272 250.21 186.751 250.21 C 182.232 250.21 178.668 246.732 178.668 242.298 Z M 231.745 256.817 C 233.048 254.73 235.569 253.078 238.786 253.078 C 243.219 253.078 246.436 256.209 246.436 260.467 C 246.436 264.727 243.219 268.117 238.786 268.117 C 234.178 268.117 231.658 265.075 231.398 262.38 L 216.097 262.38 C 216.357 274.463 225.225 282.373 239.046 282.373 C 251.998 282.373 261.909 272.725 261.909 259.686 C 261.909 248.906 254.172 239.953 242.785 239.953 C 239.046 239.953 235.743 240.909 232.875 242.735 L 234.004 235.085 L 257.736 235.085 L 257.736 221.524 L 222.008 221.524 L 217.574 253.861 L 231.745 256.817 Z M 296.844 235.345 C 296.844 227.086 290.15 220.654 281.545 220.654 C 272.939 220.654 266.245 227.086 266.245 235.345 C 266.245 243.602 272.939 250.036 281.545 250.036 C 290.15 250.036 296.844 243.602 296.844 235.345 Z M 286.587 235.345 C 286.587 238.388 284.414 240.474 281.545 240.474 C 278.676 240.474 276.503 238.388 276.503 235.345 C 276.503 232.302 278.676 230.216 281.545 230.216 C 284.414 230.216 286.587 232.302 286.587 235.345 Z M 329.443 221.437 L 316.143 221.437 L 271.809 281.156 L 285.109 281.156 L 329.443 221.437 Z M 304.407 267.248 C 304.407 275.506 311.101 281.939 319.707 281.939 C 328.312 281.939 335.006 275.506 335.006 267.248 C 335.006 258.99 328.312 252.557 319.707 252.557 C 311.101 252.557 304.407 258.99 304.407 267.248 Z M 314.665 267.248 C 314.665 264.205 316.837 262.118 319.707 262.118 C 322.574 262.118 324.748 264.205 324.748 267.248 C 324.748 270.29 322.574 272.377 319.707 272.377 C 316.837 272.377 314.665 270.29 314.665 267.248 Z" fill="white" style=""/>
</svg>